<svg width="218" height="75" viewBox="0 0 218 75" fill="none" xmlns="http://www.w3.org/2000/svg">
<path d="M44.2969 63.6231H11.7031C7.82578 63.6231 4.66484 60.4113 4.66484 56.4592V41.0625C4.66484 39.7488 5.70938 38.6856 7 38.6856C8.29063 38.6856 9.33516 39.7488 9.33516 41.0625V56.4647C9.33516 57.7951 10.3961 58.875 11.7031 58.875H44.2969C45.6039 58.875 46.6648 57.7951 46.6648 56.4647V41.0625C46.6648 39.7488 47.7094 38.6856 49 38.6856C50.2906 38.6856 51.3352 39.7488 51.3352 41.0625V56.4647C51.3352 60.4113 48.1742 63.6231 44.2969 63.6231Z" fill="#06283D"/>
<path d="M42 37.5C39.457 37.5 37.007 36.6483 35 35.112C32.993 36.6483 30.543 37.5 28 37.5C25.457 37.5 23.007 36.6483 21 35.112C18.993 36.6483 16.543 37.5 14 37.5C7.56875 37.5 2.33516 32.173 2.33516 25.6269C2.33516 19.0808 7.56875 13.7481 14 13.7481H42C48.4312 13.7481 53.6648 19.0752 53.6648 25.6213C53.6648 32.1674 48.4312 37.5 42 37.5ZM35 28.2987L36.75 30.3249C38.0844 31.8668 39.9984 32.7519 42 32.7519C45.8609 32.7519 49 29.5567 49 25.6269C49 21.697 45.8609 18.5019 42 18.5019H14C10.1391 18.5019 7 21.697 7 25.6269C7 29.5567 10.1391 32.7519 14 32.7519C16.0016 32.7519 17.9156 31.8668 19.25 30.3249L21 28.2987L22.75 30.3249C24.0844 31.8668 25.9984 32.7519 28 32.7519C30.0016 32.7519 31.9156 31.8668 33.25 30.3249L35 28.2987Z" fill="#3688FF"/>
<path d="M21 32.6739C19.7094 32.6739 18.6648 31.6107 18.6648 30.2971V27.9981C18.6648 26.6845 19.7094 25.6213 21 25.6213C22.2906 25.6213 23.3352 26.6845 23.3352 27.9981V30.2971C23.3352 31.6107 22.2906 32.6739 21 32.6739ZM35 32.6739C33.7094 32.6739 32.6648 31.6107 32.6648 30.2971V27.9981C32.6648 26.6845 33.7094 25.6213 35 25.6213C36.2906 25.6213 37.3352 26.6845 37.3352 27.9981V30.2971C37.3352 31.6107 36.2906 32.6739 35 32.6739Z" fill="#1363DF"/>
<path d="M39.6648 52.9356C38.3742 52.9356 37.3297 51.8725 37.3297 50.5588V46.9963C37.3297 45.6826 38.3742 44.6194 39.6648 44.6194C40.9555 44.6194 42 45.6826 42 46.9963V50.5588C42 51.8725 40.9555 52.9356 39.6648 52.9356Z" fill="#5F6379"/>
<path d="M78.3129 52.38C76.8689 52.38 75.5262 52.19 74.2849 51.81C73.0689 51.43 71.9542 50.86 70.9409 50.1C69.9529 49.3147 69.0662 48.352 68.2809 47.212L71.0929 43.982C72.3342 45.7553 73.5249 46.984 74.6649 47.668C75.8049 48.352 77.1602 48.694 78.7309 48.694C79.6935 48.694 80.5675 48.542 81.3529 48.238C82.1382 47.934 82.7589 47.516 83.2149 46.984C83.6709 46.452 83.8989 45.844 83.8989 45.16C83.8989 44.704 83.8229 44.2733 83.6709 43.868C83.5189 43.4627 83.2782 43.0953 82.9489 42.766C82.6449 42.4367 82.2395 42.1327 81.7329 41.854C81.2515 41.5753 80.6815 41.3347 80.0229 41.132C79.3642 40.904 78.6042 40.714 77.7429 40.562C76.3749 40.2833 75.1842 39.916 74.1709 39.46C73.1575 39.004 72.3089 38.434 71.6249 37.75C70.9409 37.066 70.4342 36.2933 70.1049 35.432C69.7755 34.5453 69.6109 33.5573 69.6109 32.468C69.6109 31.404 69.8389 30.416 70.2949 29.504C70.7762 28.592 71.4222 27.8067 72.2329 27.148C73.0689 26.464 74.0442 25.9447 75.1589 25.59C76.2735 25.21 77.4769 25.02 78.7689 25.02C80.1369 25.02 81.3909 25.1973 82.5309 25.552C83.6709 25.9067 84.6842 26.4387 85.5709 27.148C86.4575 27.832 87.1922 28.6807 87.7749 29.694L84.8869 32.544C84.3802 31.708 83.8102 31.0113 83.1769 30.454C82.5435 29.8713 81.8469 29.4407 81.0869 29.162C80.3269 28.858 79.5162 28.706 78.6549 28.706C77.6669 28.706 76.8055 28.858 76.0709 29.162C75.3362 29.466 74.7535 29.8967 74.3229 30.454C73.9175 30.986 73.7149 31.6193 73.7149 32.354C73.7149 32.886 73.8162 33.38 74.0189 33.836C74.2215 34.2667 74.5255 34.6593 74.9309 35.014C75.3615 35.3433 75.9315 35.6473 76.6409 35.926C77.3502 36.1793 78.1989 36.4073 79.1869 36.61C80.5802 36.914 81.8215 37.3067 82.9109 37.788C84.0002 38.244 84.9249 38.7887 85.6849 39.422C86.4449 40.0553 87.0149 40.7647 87.3949 41.55C87.8002 42.3353 88.0029 43.184 88.0029 44.096C88.0029 45.7933 87.6102 47.2627 86.8249 48.504C86.0395 49.7453 84.9249 50.708 83.4809 51.392C82.0369 52.0507 80.3142 52.38 78.3129 52.38ZM92.8298 52V23.88H96.7438V36.154L96.0598 36.61C96.3131 35.7233 96.8071 34.9127 97.5418 34.178C98.2764 33.418 99.1504 32.81 100.164 32.354C101.177 31.8727 102.216 31.632 103.28 31.632C104.8 31.632 106.066 31.936 107.08 32.544C108.093 33.1267 108.853 34.026 109.36 35.242C109.866 36.458 110.12 37.9907 110.12 39.84V52H106.206V40.106C106.206 38.966 106.054 38.0287 105.75 37.294C105.446 36.534 104.977 35.9893 104.344 35.66C103.71 35.3053 102.925 35.1533 101.988 35.204C101.228 35.204 100.531 35.3307 99.8978 35.584C99.2644 35.812 98.7071 36.1413 98.2258 36.572C97.7698 37.0027 97.4024 37.5093 97.1238 38.092C96.8704 38.6493 96.7438 39.2573 96.7438 39.916V52H94.8058C94.4764 52 94.1471 52 93.8178 52C93.4884 52 93.1591 52 92.8298 52ZM124.397 52.38C122.447 52.38 120.699 51.9367 119.153 51.05C117.633 50.138 116.43 48.9093 115.543 47.364C114.657 45.7933 114.213 44.0073 114.213 42.006C114.213 40.0047 114.657 38.2313 115.543 36.686C116.43 35.1153 117.633 33.8867 119.153 33C120.699 32.088 122.447 31.632 124.397 31.632C126.323 31.632 128.045 32.088 129.565 33C131.111 33.8867 132.327 35.1153 133.213 36.686C134.1 38.2313 134.543 40.0047 134.543 42.006C134.543 44.0073 134.1 45.7933 133.213 47.364C132.327 48.9093 131.111 50.138 129.565 51.05C128.045 51.9367 126.323 52.38 124.397 52.38ZM124.397 48.808C125.588 48.808 126.652 48.5167 127.589 47.934C128.527 47.326 129.261 46.5153 129.793 45.502C130.325 44.4633 130.579 43.298 130.553 42.006C130.579 40.6887 130.325 39.5233 129.793 38.51C129.261 37.4713 128.527 36.6607 127.589 36.078C126.652 35.4953 125.588 35.204 124.397 35.204C123.207 35.204 122.13 35.508 121.167 36.116C120.23 36.6987 119.495 37.5093 118.963 38.548C118.431 39.5613 118.178 40.714 118.203 42.006C118.178 43.298 118.431 44.4633 118.963 45.502C119.495 46.5153 120.23 47.326 121.167 47.934C122.13 48.5167 123.207 48.808 124.397 48.808ZM138.808 60.36V32.05H142.76V36.61L142.152 36.268C142.304 35.508 142.735 34.786 143.444 34.102C144.154 33.3927 145.015 32.8227 146.028 32.392C147.067 31.936 148.131 31.708 149.22 31.708C151.019 31.708 152.615 32.1513 154.008 33.038C155.402 33.9247 156.504 35.1407 157.314 36.686C158.125 38.2313 158.53 40.0047 158.53 42.006C158.53 43.982 158.125 45.7553 157.314 47.326C156.529 48.8713 155.44 50.1 154.046 51.012C152.653 51.8987 151.082 52.342 149.334 52.342C148.169 52.342 147.042 52.114 145.952 51.658C144.863 51.1767 143.938 50.5687 143.178 49.834C142.418 49.0993 141.95 48.3393 141.772 47.554L142.76 47.022V60.36H138.808ZM148.688 48.732C149.854 48.732 150.892 48.4407 151.804 47.858C152.716 47.2753 153.438 46.4773 153.97 45.464C154.502 44.4507 154.768 43.298 154.768 42.006C154.768 40.714 154.502 39.574 153.97 38.586C153.464 37.5727 152.754 36.7747 151.842 36.192C150.93 35.6093 149.879 35.318 148.688 35.318C147.498 35.318 146.446 35.6093 145.534 36.192C144.622 36.7493 143.9 37.5347 143.368 38.548C142.836 39.5613 142.57 40.714 142.57 42.006C142.57 43.298 142.836 44.4507 143.368 45.464C143.9 46.4773 144.622 47.2753 145.534 47.858C146.446 48.4407 147.498 48.732 148.688 48.732ZM163.427 52V32.05H167.341V52H163.427ZM165.327 27.642C164.491 27.642 163.845 27.4267 163.389 26.996C162.933 26.5653 162.705 25.9573 162.705 25.172C162.705 24.4373 162.933 23.842 163.389 23.386C163.87 22.93 164.516 22.702 165.327 22.702C166.163 22.702 166.809 22.9173 167.265 23.348C167.721 23.7787 167.949 24.3867 167.949 25.172C167.949 25.9067 167.708 26.502 167.227 26.958C166.771 27.414 166.138 27.642 165.327 27.642ZM175.523 52V29.808C175.523 28.668 175.776 27.6547 176.283 26.768C176.79 25.8813 177.486 25.1847 178.373 24.678C179.26 24.1713 180.286 23.918 181.451 23.918C182.262 23.918 183.022 24.07 183.731 24.374C184.44 24.678 185.01 25.0833 185.441 25.59L184.111 28.592C183.782 28.288 183.414 28.0473 183.009 27.87C182.629 27.6673 182.262 27.566 181.907 27.566C181.375 27.566 180.919 27.6547 180.539 27.832C180.184 27.984 179.918 28.2373 179.741 28.592C179.564 28.9213 179.475 29.3267 179.475 29.808V52H177.499C177.17 52 176.84 52 176.511 52C176.182 52 175.852 52 175.523 52ZM172.331 36.002V32.392H184.187V36.002H172.331ZM191.619 60.74L195.647 51.43L195.685 54.546L185.729 32.05H190.289L196.521 46.718C196.648 46.9713 196.8 47.364 196.977 47.896C197.154 48.4027 197.306 48.9093 197.433 49.416L196.445 49.644C196.648 49.112 196.838 48.58 197.015 48.048C197.218 47.516 197.408 46.984 197.585 46.452L202.791 32.05H207.427L199.219 52L195.837 60.74H191.619Z" fill="#06283D"/>
</svg>
